<?xml version="1.0" standalone="no"?>
<!DOCTYPE svg PUBLIC "-//W3C//DTD SVG 20010904//EN"
 "http://www.w3.org/TR/2001/REC-SVG-20010904/DTD/svg10.dtd">
<svg version="1.0" xmlns="http://www.w3.org/2000/svg"
 width="768.000000pt" height="768.000000pt" viewBox="0 0 768.000000 768.000000"
 preserveAspectRatio="xMidYMid meet">
<metadata>
Created by potrace 1.11, written by Peter Selinger 2001-2013
</metadata>
<g transform="translate(0.000000,768.000000) scale(0.100000,-0.100000)"
fill="#000000" stroke="none">
<path d="M695 7144 c-38 -8 -113 -35 -165 -61 -79 -38 -109 -60 -181 -132 -72
-72 -94 -102 -132 -181 -84 -171 -77 80 -77 -2930 0 -3010 -7 -2759 77 -2930
38 -79 60 -109 132 -181 72 -72 102 -94 181 -132 172 -84 -125 -77 3310 -77
3435 0 3138 -7 3310 77 79 38 109 60 181 132 72 72 94 102 132 181 84 171 77
-80 77 2930 0 3010 7 2759 -77 2930 -38 79 -60 109 -132 181 -72 72 -102 94
-181 132 -172 84 126 77 -3317 76 -2630 -1 -3078 -3 -3138 -15z m3673 -2367
c-508 -505 -1357 -1349 -1888 -1876 l-965 -958 -368 362 -369 362 1888 1875
1888 1876 368 -362 368 -361 -922 -918z m990 -341 c3 -11 -705 -716 -726 -724
-4 -1 -138 128 -297 288 l-290 290 364 364 364 364 291 -284 c160 -157 292
-291 294 -298z m1080 111 l363 -363 -1071 -1064 -1072 -1063 -364 364 c-200
200 -363 366 -362 369 6 11 2132 2120 2137 2120 3 0 169 -163 369 -363z
m-4510 40 l292 -292 -365 -365 -365 -365 -295 295 -295 295 362 362 c200 200
365 363 368 363 3 0 137 -132 298 -293z m4629 -2054 c-199 -200 -366 -363
-372 -363 -6 0 -151 141 -323 313 l-313 313 366 362 366 363 319 -313 320
-313 -363 -362z m-2702 142 l710 -703 -365 -366 -365 -366 -715 709 -715 709
365 360 c201 199 367 361 370 361 3 0 325 -316 715 -704z"/>
</g>
</svg>
